<svg width="14" height="18" viewBox="0 0 14 18" fill="none" xmlns="http://www.w3.org/2000/svg">
<path d="M11.4531 2.14453C10.2461 2.14453 9.26562 3.125 9.26562 4.33203C9.26562 5.31055 9.91211 6.14062 10.7988 6.41992V8.29297L3.25 10.7656V5.21289C4.11328 4.91992 4.73438 4.10156 4.73438 3.14062C4.73438 1.93359 3.75391 0.953125 2.54688 0.953125C1.33984 0.953125 0.359375 1.93359 0.359375 3.14062C0.359375 4.10156 0.980469 4.91797 1.84375 5.21289V12.7891C0.980469 13.082 0.359375 13.9004 0.359375 14.8613C0.359375 16.0684 1.33984 17.0488 2.54688 17.0488C3.75391 17.0488 4.73438 16.0684 4.73438 14.8613C4.73438 13.9004 4.11328 13.084 3.25 12.7891V12.2461L11.5215 9.53711C11.7201 9.47253 11.8931 9.34659 12.0156 9.17742C12.1381 9.00825 12.2038 8.80457 12.2031 8.5957V6.38672C13.041 6.07812 13.6406 5.27344 13.6406 4.33203C13.6406 3.125 12.6602 2.14453 11.4531 2.14453ZM1.60938 3.14062C1.61438 2.8953 1.71536 2.66171 1.89063 2.48998C2.0659 2.31825 2.3015 2.22207 2.54688 2.22207C2.79225 2.22207 3.02785 2.31825 3.20312 2.48998C3.37839 2.66171 3.47937 2.8953 3.48438 3.14062C3.47937 3.38595 3.37839 3.61954 3.20312 3.79127C3.02785 3.963 2.79225 4.05918 2.54688 4.05918C2.3015 4.05918 2.0659 3.963 1.89063 3.79127C1.71536 3.61954 1.61438 3.38595 1.60938 3.14062ZM3.48438 14.8594C3.47937 15.1047 3.37839 15.3383 3.20312 15.51C3.02785 15.6817 2.79225 15.7779 2.54688 15.7779C2.3015 15.7779 2.0659 15.6817 1.89063 15.51C1.71536 15.3383 1.61438 15.1047 1.60938 14.8594C1.61438 14.614 1.71536 14.3805 1.89063 14.2087C2.0659 14.037 2.3015 13.9408 2.54688 13.9408C2.79225 13.9408 3.02785 14.037 3.20312 14.2087C3.37839 14.3805 3.47937 14.614 3.48438 14.8594ZM11.4531 5.26953C11.2078 5.26452 10.9742 5.16355 10.8025 4.98828C10.6308 4.81301 10.5346 4.57741 10.5346 4.33203C10.5346 4.08665 10.6308 3.85105 10.8025 3.67578C10.9742 3.50051 11.2078 3.39954 11.4531 3.39453C11.6985 3.39954 11.932 3.50051 12.1038 3.67578C12.2755 3.85105 12.3717 4.08665 12.3717 4.33203C12.3717 4.57741 12.2755 4.81301 12.1038 4.98828C11.932 5.16355 11.6985 5.26452 11.4531 5.26953Z" fill="white"/>
</svg>
