<svg width="20" height="20" viewBox="0 0 20 20" fill="none" xmlns="http://www.w3.org/2000/svg">
<path d="M18.0157 3.85915C17.7841 3.62671 17.509 3.44228 17.206 3.31644C16.903 3.19059 16.5781 3.12581 16.2501 3.12581C15.922 3.12581 15.5971 3.19059 15.2941 3.31644C14.9911 3.44228 14.716 3.62671 14.4844 3.85915C14.3251 4.01365 14.1883 4.18987 14.0782 4.38259L11.8751 3.78102C11.8804 3.28453 11.7379 2.79768 11.4655 2.38253C11.1931 1.96738 10.8033 1.64273 10.3457 1.44998C9.88814 1.25722 9.38353 1.20509 8.8962 1.30022C8.40888 1.39536 7.96092 1.63345 7.60943 1.98415C7.23299 2.35969 6.98609 2.84547 6.90461 3.37092C6.82312 3.89636 6.91129 4.43411 7.15631 4.90602L4.50787 7.28884C4.02667 6.97084 3.45033 6.82902 2.87652 6.8874C2.3027 6.94577 1.76673 7.20076 1.35943 7.60915C1.127 7.84069 0.942566 8.11585 0.816722 8.41884C0.690879 8.72183 0.626099 9.04669 0.626099 9.37477C0.626099 9.70286 0.690879 10.0277 0.816722 10.3307C0.942566 10.6337 1.127 10.9089 1.35943 11.1404C1.59011 11.3741 1.86508 11.5594 2.16825 11.6855C2.47143 11.8116 2.79671 11.8759 3.12506 11.8748C3.70271 11.8755 4.26291 11.6768 4.71099 11.3123L10.1797 15.3201C9.99839 15.7744 9.95428 16.2718 10.0529 16.7509C10.1515 17.23 10.3884 17.6697 10.7344 18.0154C10.966 18.2478 11.2411 18.4323 11.5441 18.5581C11.8471 18.684 12.172 18.7487 12.5001 18.7487C12.8281 18.7487 13.153 18.684 13.456 18.5581C13.759 18.4323 14.0341 18.2478 14.2657 18.0154C14.4981 17.7839 14.6825 17.5087 14.8084 17.2057C14.9342 16.9027 14.999 16.5779 14.999 16.2498C14.999 15.9217 14.9342 15.5968 14.8084 15.2938C14.6825 14.9909 14.4981 14.7157 14.2657 14.4841C14.1509 14.3714 14.0282 14.2669 13.8985 14.1716L16.0313 8.11696H16.2501C16.5784 8.11812 16.9037 8.05377 17.2069 7.92767C17.51 7.80157 17.785 7.61626 18.0157 7.38259C18.4827 6.91525 18.7451 6.28158 18.7451 5.62087C18.7451 4.96015 18.4827 4.32648 18.0157 3.85915V3.85915ZM12.7188 13.7576C12.0682 13.7028 11.4216 13.9016 10.9141 14.3123L5.44537 10.3045C5.57781 9.96955 5.63725 9.61024 5.61974 9.25053C5.60223 8.89081 5.50815 8.53898 5.34381 8.21852L7.99225 5.83571C8.40322 6.10502 8.8837 6.24889 9.37506 6.24977C9.70341 6.25093 10.0287 6.18658 10.3319 6.06048C10.635 5.93438 10.91 5.74907 11.1407 5.5154C11.3 5.3609 11.4368 5.18468 11.5469 4.99196L13.7501 5.59352C13.7447 5.92711 13.807 6.25833 13.9332 6.56717C14.0594 6.876 14.247 7.15605 14.4844 7.3904C14.5992 7.50317 14.7219 7.6076 14.8516 7.7029L12.7188 13.7576Z" fill="white"/>
</svg>
