<svg width="19" height="19" viewBox="0 0 19 19" fill="none" xmlns="http://www.w3.org/2000/svg">
<path d="M14.6029 5.95442C14.5414 5.94417 14.4697 5.94417 14.4082 5.95442C12.9941 5.90318 11.8668 4.7452 11.8668 3.31054C11.8668 1.84513 13.0453 0.666656 14.5107 0.666656C15.9761 0.666656 17.1546 1.85538 17.1546 3.31054C17.1443 4.7452 16.0171 5.90318 14.6029 5.95442Z" fill="white"/>
<path d="M13.5475 12.185C14.9514 12.4207 16.4988 12.1747 17.585 11.4471C19.0299 10.4839 19.0299 8.90575 17.585 7.94247C16.4885 7.21489 14.9206 6.96894 13.5167 7.21489" fill="white"/>
<path d="M4.73439 5.95442C4.79588 5.94417 4.86761 5.94417 4.9291 5.95442C6.34326 5.90318 7.4705 4.7452 7.4705 3.31054C7.4705 1.84513 6.29203 0.666656 4.82662 0.666656C3.36121 0.666656 2.18274 1.85538 2.18274 3.31054C2.19299 4.7452 3.32022 5.90318 4.73439 5.95442Z" fill="white"/>
<path d="M5.78994 12.185C4.38602 12.4207 2.83863 12.1747 1.75238 11.4471C0.307473 10.4839 0.307473 8.90575 1.75238 7.94247C2.84888 7.21489 4.41676 6.96894 5.82068 7.21489" fill="white"/>
<path d="M9.6841 12.3797C9.62262 12.3694 9.55089 12.3694 9.4894 12.3797C8.07523 12.3284 6.948 11.1705 6.948 9.7358C6.948 8.27039 8.12647 7.09192 9.59188 7.09192C11.0573 7.09192 12.2358 8.28064 12.2358 9.7358C12.2255 11.1705 11.0983 12.3387 9.6841 12.3797Z" fill="white"/>
<path d="M6.70197 14.378C5.25706 15.3413 5.25706 16.9194 6.70197 17.8827C8.34159 18.9791 11.0265 18.9791 12.6661 17.8827C14.111 16.9194 14.111 15.3413 12.6661 14.378C11.0367 13.2917 8.34159 13.2917 6.70197 14.378Z" fill="white"/>
</svg>
