<svg width="20" height="20" viewBox="0 0 20 20" fill="none" xmlns="http://www.w3.org/2000/svg">
<g clip-path="url(#clip0_7_6)">
<path d="M14.6154 0C12.9162 0 11.5385 1.37923 11.5385 3.07692C11.5385 5.12692 14.2308 7.92769 14.2308 10.7454H15.0001C15.0008 7.92769 17.6924 5.20769 17.6924 3.07692C17.6924 1.37923 16.3147 0 14.6154 0ZM14.6154 1.49077C14.8238 1.49087 15.0302 1.53202 15.2227 1.61186C15.4152 1.6917 15.5901 1.80868 15.7373 1.95611C15.8846 2.10354 16.0014 2.27854 16.0811 2.47111C16.1607 2.66369 16.2017 2.87006 16.2016 3.07846C16.2015 3.28686 16.1603 3.4932 16.0805 3.68569C16.0007 3.87819 15.8837 4.05307 15.7363 4.20036C15.5888 4.34765 15.4138 4.46446 15.2213 4.54411C15.0287 4.62377 14.8223 4.66472 14.6139 4.66462C14.1929 4.66441 13.7893 4.49698 13.4917 4.19916C13.1942 3.90134 13.0272 3.49752 13.0274 3.07654C13.0276 2.65556 13.195 2.2519 13.4928 1.95437C13.7906 1.65683 14.1945 1.4898 14.6154 1.49V1.49077ZM10.0001 1.53846C4.91006 1.53846 0.769287 5.67923 0.769287 10.7692C0.769287 15.8592 4.91006 20 10.0001 20C15.0901 20 19.2308 15.8592 19.2308 10.7692C19.2308 9.22308 18.8477 7.77231 18.1731 6.49C18.0708 6.69308 17.9677 6.88615 17.8608 7.09154C17.6585 7.48231 17.4454 7.87692 17.2593 8.26923C17.4516 8.81923 17.5839 9.40077 17.6439 10H16.6347C16.5793 10.2577 16.5385 10.5 16.5385 10.7454V11.5385H17.6447C17.5403 12.6229 17.204 13.6723 16.6585 14.6154H14.4001C14.5693 13.8938 14.667 13.0962 14.7362 12.2838H13.2208C13.1491 13.0709 13.0128 13.8507 12.8131 14.6154H7.18698C6.92701 13.6086 6.77386 12.5773 6.73006 11.5385H12.6916V10.7454C12.6856 10.4942 12.6534 10.2444 12.5954 10H6.73083C6.77463 8.96116 6.92778 7.92982 7.18775 6.92308H11.2985C11.0317 6.41923 10.7828 5.90609 10.5524 5.38462H7.71621C8.35236 3.93308 9.19313 3.07692 10.0001 3.07692C10.0001 2.54231 10.0962 2.04 10.2647 1.56231C10.1762 1.55923 10.0893 1.53846 10.0001 1.53846ZM6.82698 3.77385C6.52064 4.28547 6.26309 4.82476 6.05775 5.38462H4.51929C5.18282 4.71023 5.96516 4.16415 6.82698 3.77385ZM3.34159 6.92308H5.60006C5.3674 7.93358 5.23064 8.96379 5.1916 10H2.35544C2.45946 8.91546 2.7958 7.86603 3.34159 6.92308ZM2.35544 11.5385H5.19236C5.23775 12.6346 5.37929 13.6692 5.60083 14.6154H3.34159C2.79646 13.6721 2.46017 12.6229 2.35544 11.5385ZM4.51929 16.1538H6.05775C6.27929 16.7508 6.53852 17.2869 6.82698 17.7646C5.96516 17.3743 5.18282 16.8282 4.51929 16.1538ZM7.71621 16.1538H12.2839C11.6477 17.6054 10.807 18.4615 10.0001 18.4615C9.19313 18.4615 8.35159 17.6054 7.71621 16.1538ZM13.9424 16.1538H15.4808C14.8173 16.8282 14.035 17.3743 13.1731 17.7646C13.4616 17.2877 13.7208 16.7515 13.9424 16.1538Z" fill="white"/>
</g>
<defs>
<clipPath id="clip0_7_6">
<rect width="20" height="20" fill="white"/>
</clipPath>
</defs>
</svg>
