<svg width="25" height="21" viewBox="0 0 25 21" fill="none" xmlns="http://www.w3.org/2000/svg">
<path d="M12.6334 11.0583C12.55 11.05 12.45 11.05 12.3584 11.0583C10.375 10.9917 8.80005 9.36666 8.80005 7.36666C8.80005 5.325 10.45 3.66666 12.5 3.66666C14.5417 3.66666 16.2 5.325 16.2 7.36666C16.1917 9.36666 14.6167 10.9917 12.6334 11.0583Z" fill="white"/>
<path d="M8.46672 14.1333C6.45006 15.4833 6.45006 17.6833 8.46672 19.025C10.7584 20.5583 14.5167 20.5583 16.8084 19.025C18.8251 17.675 18.8251 15.475 16.8084 14.1333C14.5251 12.6083 10.7667 12.6083 8.46672 14.1333Z" fill="white"/>
<path opacity="0.4" d="M18.6334 8.05833C18.55 8.05 18.45 8.05 18.3584 8.05833C16.375 7.99166 14.8 6.36666 14.8 4.36666C14.8 2.325 16.45 0.666664 18.5 0.666664C20.5417 0.666664 22.2 2.325 22.2 4.36666C22.1917 6.36666 20.6167 7.99166 18.6334 8.05833Z" fill="white"/>
<path opacity="0.4" d="M14.4667 11.1333C12.4501 12.4833 12.4501 14.6833 14.4667 16.025C16.7584 17.5583 20.5167 17.5583 22.8084 16.025C24.8251 14.675 24.8251 12.475 22.8084 11.1333C20.5251 9.60833 16.7667 9.60833 14.4667 11.1333Z" fill="white"/>
<path opacity="0.4" d="M6.63338 8.05833C6.55005 8.05 6.45005 8.05 6.35838 8.05833C4.37505 7.99166 2.80005 6.36666 2.80005 4.36666C2.80005 2.325 4.45005 0.666664 6.50005 0.666664C8.54172 0.666664 10.2 2.325 10.2 4.36666C10.1917 6.36666 8.61672 7.99166 6.63338 8.05833Z" fill="white"/>
<path opacity="0.4" d="M2.46672 11.1333C0.450057 12.4833 0.450057 14.6833 2.46672 16.025C4.75839 17.5583 8.51672 17.5583 10.8084 16.025C12.8251 14.675 12.8251 12.475 10.8084 11.1333C8.52506 9.60833 4.76672 9.60833 2.46672 11.1333Z" fill="white"/>
</svg>
