<svg width="19" height="18" viewBox="0 0 19 18" fill="none" xmlns="http://www.w3.org/2000/svg">
<path d="M17.3896 2.60524C17.158 2.37281 16.8829 2.18838 16.5799 2.06253C16.2769 1.93669 15.952 1.87191 15.624 1.87191C15.2959 1.87191 14.971 1.93669 14.668 2.06253C14.365 2.18838 14.0899 2.37281 13.8583 2.60524C13.699 2.75974 13.5622 2.93596 13.4521 3.12868L11.249 2.52712C11.2543 2.03062 11.1118 1.54377 10.8394 1.12862C10.567 0.71347 10.1772 0.388826 9.71963 0.196072C9.26204 0.00331754 8.75743 -0.0488152 8.27011 0.0463185C7.78278 0.141452 7.33482 0.379543 6.98333 0.730242C6.60689 1.10578 6.35999 1.59156 6.27851 2.11701C6.19702 2.64246 6.28519 3.1802 6.53021 3.65212L3.88177 6.03493C3.40058 5.71694 2.82423 5.57511 2.25042 5.63349C1.67661 5.69187 1.14063 5.94686 0.733334 6.35524C0.500898 6.58679 0.316467 6.86195 0.190624 7.16494C0.06478 7.46793 0 7.79278 0 8.12087C0 8.44895 0.06478 8.77381 0.190624 9.0768C0.316467 9.37979 0.500898 9.65495 0.733334 9.88649C0.964009 10.1202 1.23898 10.3055 1.54215 10.4316C1.84533 10.5577 2.17061 10.622 2.49896 10.6209C3.07661 10.6216 3.63681 10.4229 4.0849 10.0584L9.55365 14.0662C9.3723 14.5204 9.32819 15.0179 9.42678 15.497C9.52538 15.9761 9.76234 16.4158 10.1083 16.7615C10.3399 16.9939 10.615 17.1784 10.918 17.3042C11.221 17.43 11.5459 17.4948 11.874 17.4948C12.202 17.4948 12.5269 17.43 12.8299 17.3042C13.1329 17.1784 13.408 16.9939 13.6396 16.7615C13.872 16.5299 14.0564 16.2548 14.1823 15.9518C14.3081 15.6488 14.3729 15.324 14.3729 14.9959C14.3729 14.6678 14.3081 14.3429 14.1823 14.0399C14.0564 13.7369 13.872 13.4618 13.6396 13.2302C13.5248 13.1175 13.4021 13.013 13.2724 12.9177L15.4052 6.86305H15.624C15.9523 6.86421 16.2776 6.79986 16.5808 6.67376C16.8839 6.54766 17.1589 6.36235 17.3896 6.12868C17.8566 5.66135 18.119 5.02767 18.119 4.36696C18.119 3.70625 17.8566 3.07257 17.3896 2.60524V2.60524ZM7.86615 1.61305C8.04084 1.43794 8.26356 1.31858 8.50612 1.27011C8.74868 1.22163 9.00017 1.24621 9.22875 1.34073C9.45734 1.43525 9.65274 1.59546 9.79023 1.80109C9.92771 2.00672 10.0011 2.24851 10.0011 2.49587C10.0011 2.74322 9.92771 2.98502 9.79023 3.19064C9.65274 3.39627 9.45734 3.55649 9.22875 3.65101C9.00017 3.74553 8.74868 3.7701 8.50612 3.72163C8.26356 3.67315 8.04084 3.5538 7.86615 3.37868C7.74946 3.26317 7.65683 3.12568 7.59361 2.97415C7.53039 2.82262 7.49784 2.66006 7.49784 2.49587C7.49784 2.33168 7.53039 2.16912 7.59361 2.01759C7.65683 1.86606 7.74946 1.72856 7.86615 1.61305ZM1.61615 9.00368C1.49946 8.88817 1.40683 8.75068 1.34361 8.59915C1.28039 8.44762 1.24784 8.28506 1.24784 8.12087C1.24784 7.95668 1.28039 7.79412 1.34361 7.64259C1.40683 7.49106 1.49946 7.35356 1.61615 7.23805C1.79084 7.06294 2.01356 6.94358 2.25612 6.89511C2.49868 6.84663 2.75017 6.87121 2.97875 6.96573C3.20734 7.06025 3.40274 7.22046 3.54023 7.42609C3.67771 7.63172 3.7511 7.87351 3.7511 8.12087C3.7511 8.36822 3.67771 8.61002 3.54023 8.81564C3.40274 9.02127 3.20734 9.18149 2.97875 9.27601C2.75017 9.37053 2.49868 9.3951 2.25612 9.34663C2.01356 9.29815 1.79084 9.1788 1.61615 9.00368ZM12.7568 15.8787C12.519 16.0941 12.2075 16.2099 11.8867 16.202C11.5659 16.1941 11.2605 16.0631 11.0336 15.8363C10.8067 15.6094 10.6757 15.3039 10.6678 14.9831C10.6599 14.6624 10.7757 14.3508 10.9911 14.1131C11.2289 13.8976 11.5405 13.7818 11.8612 13.7897C12.182 13.7976 12.4875 13.9286 12.7143 14.1555C12.9412 14.3824 13.0722 14.6878 13.0801 15.0086C13.088 15.3294 12.9722 15.6409 12.7568 15.8787V15.8787ZM12.0927 12.5037C11.4421 12.4489 10.7955 12.6476 10.288 13.0584L4.81927 9.05055C4.95171 8.71565 5.01115 8.35634 4.99364 7.99662C4.97613 7.63691 4.88205 7.28507 4.71771 6.96462L7.36615 4.5818C7.77713 4.85111 8.2576 4.99498 8.74896 4.99587C9.07731 4.99703 9.40259 4.93267 9.70576 4.80657C10.0089 4.68048 10.2839 4.49517 10.5146 4.26149C10.6739 4.10699 10.8107 3.93077 10.9208 3.73805L13.124 4.33962C13.1186 4.67321 13.1809 5.00442 13.3071 5.31326C13.4333 5.6221 13.6209 5.90215 13.8583 6.13649C13.9731 6.24926 14.0958 6.35369 14.2255 6.44899L12.0927 12.5037ZM16.5068 5.25368C16.269 5.46913 15.9575 5.58489 15.6367 5.57699C15.3159 5.56909 15.0105 5.43814 14.7836 5.21125C14.5567 4.98436 14.4257 4.67891 14.4178 4.35814C14.4099 4.03736 14.5257 3.72584 14.7411 3.48805C14.8548 3.36257 14.9929 3.2615 15.1468 3.19097C15.3007 3.12043 15.4674 3.08192 15.6367 3.07775C15.806 3.07358 15.9743 3.10385 16.1316 3.16672C16.2888 3.22959 16.4316 3.32375 16.5513 3.44349C16.6711 3.56322 16.7652 3.70604 16.8281 3.86326C16.891 4.02049 16.9212 4.18886 16.9171 4.35814C16.9129 4.52742 16.8744 4.69409 16.8039 4.84803C16.7333 5.00197 16.6323 5.13998 16.5068 5.25368Z" fill="white"/>
</svg>
