<svg width="20" height="20" viewBox="0 0 20 20" fill="none" xmlns="http://www.w3.org/2000/svg">
<g clip-path="url(#clip0_130_631)">
<path d="M13.3334 11.6667H14.5834V14.0167L16.6167 15.1917L15.9917 16.275L13.3334 14.7417V11.6667ZM14.1667 10C13.0616 10 12.0018 10.439 11.2204 11.2204C10.439 12.0018 10 13.0616 10 14.1667C10 15.2717 10.439 16.3316 11.2204 17.113C12.0018 17.8944 13.0616 18.3333 14.1667 18.3333C15.2718 18.3333 16.3316 17.8944 17.113 17.113C17.8944 16.3316 18.3334 15.2717 18.3334 14.1667C18.3334 13.0616 17.8944 12.0018 17.113 11.2204C16.3316 10.439 15.2718 10 14.1667 10ZM14.1667 8.33334C15.7138 8.33334 17.1975 8.94793 18.2915 10.0419C19.3855 11.1358 20 12.6196 20 14.1667C20 15.7138 19.3855 17.1975 18.2915 18.2915C17.1975 19.3854 15.7138 20 14.1667 20C11.8417 20 9.83337 18.6333 8.89171 16.6667H0.833374V14.1667C0.833374 11.95 5.27504 10.8333 7.50004 10.8333C8.00004 10.8333 8.61671 10.8917 9.26671 11C9.79527 10.1812 10.5208 9.50802 11.3768 9.04214C12.2329 8.57627 13.1921 8.33257 14.1667 8.33334ZM8.33337 14.1667C8.33337 13.5833 8.41671 13.0167 8.57504 12.5C8.22504 12.4417 7.85837 12.4167 7.50004 12.4167C5.02504 12.4167 2.41671 13.6333 2.41671 14.1667V15.0833H8.40837C8.35824 14.7804 8.33316 14.4738 8.33337 14.1667ZM7.50004 3.33334C8.3841 3.33334 9.23194 3.68453 9.85706 4.30965C10.4822 4.93478 10.8334 5.78262 10.8334 6.66668C10.8334 7.55073 10.4822 8.39858 9.85706 9.0237C9.23194 9.64882 8.3841 10 7.50004 10C6.61599 10 5.76814 9.64882 5.14302 9.0237C4.5179 8.39858 4.16671 7.55073 4.16671 6.66668C4.16671 5.78262 4.5179 4.93478 5.14302 4.30965C5.76814 3.68453 6.61599 3.33334 7.50004 3.33334ZM7.50004 4.91668C7.03591 4.91668 6.59079 5.10105 6.2626 5.42924C5.93441 5.75743 5.75004 6.20255 5.75004 6.66668C5.75004 7.13081 5.93441 7.57593 6.2626 7.90411C6.59079 8.2323 7.03591 8.41668 7.50004 8.41668C7.96417 8.41668 8.40929 8.2323 8.73748 7.90411C9.06567 7.57593 9.25004 7.13081 9.25004 6.66668C9.25004 6.20255 9.06567 5.75743 8.73748 5.42924C8.40929 5.10105 7.96417 4.91668 7.50004 4.91668Z" fill="white"/>
</g>
<defs>
<clipPath id="clip0_130_631">
<rect width="20" height="20" fill="white"/>
</clipPath>
</defs>
</svg>
