<svg width="20" height="17" viewBox="0 0 20 17" fill="none" xmlns="http://www.w3.org/2000/svg">
<path d="M13.3334 8.66683H14.5834V11.0168L16.6167 12.1918L15.9917 13.2752L13.3334 11.7418V8.66683ZM14.1667 7.00016C13.0616 7.00016 12.0018 7.43915 11.2204 8.22055C10.439 9.00195 10 10.0618 10 11.1668C10 12.2719 10.439 13.3317 11.2204 14.1131C12.0018 14.8945 13.0616 15.3335 14.1667 15.3335C15.2718 15.3335 16.3316 14.8945 17.113 14.1131C17.8944 13.3317 18.3334 12.2719 18.3334 11.1668C18.3334 10.0618 17.8944 9.00195 17.113 8.22055C16.3316 7.43915 15.2718 7.00016 14.1667 7.00016ZM14.1667 5.3335C15.7138 5.3335 17.1975 5.94808 18.2915 7.04204C19.3855 8.136 20 9.61973 20 11.1668C20 12.7139 19.3855 14.1977 18.2915 15.2916C17.1975 16.3856 15.7138 17.0002 14.1667 17.0002C11.8417 17.0002 9.83337 15.6335 8.89171 13.6668H0.833374V11.1668C0.833374 8.95016 5.27504 7.8335 7.50004 7.8335C8.00004 7.8335 8.61671 7.89183 9.26671 8.00016C9.79527 7.18134 10.5208 6.50817 11.3768 6.0423C12.2329 5.57642 13.1921 5.33272 14.1667 5.3335ZM8.33337 11.1668C8.33337 10.5835 8.41671 10.0168 8.57504 9.50016C8.22504 9.44183 7.85837 9.41683 7.50004 9.41683C5.02504 9.41683 2.41671 10.6335 2.41671 11.1668V12.0835H8.40837C8.35824 11.7805 8.33316 11.4739 8.33337 11.1668ZM7.50004 0.333496C8.3841 0.333496 9.23194 0.684685 9.85706 1.30981C10.4822 1.93493 10.8334 2.78277 10.8334 3.66683C10.8334 4.55088 10.4822 5.39873 9.85706 6.02385C9.23194 6.64897 8.3841 7.00016 7.50004 7.00016C6.61599 7.00016 5.76814 6.64897 5.14302 6.02385C4.5179 5.39873 4.16671 4.55088 4.16671 3.66683C4.16671 2.78277 4.5179 1.93493 5.14302 1.30981C5.76814 0.684685 6.61599 0.333496 7.50004 0.333496ZM7.50004 1.91683C7.03591 1.91683 6.59079 2.1012 6.2626 2.42939C5.93441 2.75758 5.75004 3.2027 5.75004 3.66683C5.75004 4.13096 5.93441 4.57608 6.2626 4.90427C6.59079 5.23246 7.03591 5.41683 7.50004 5.41683C7.96417 5.41683 8.40929 5.23246 8.73748 4.90427C9.06567 4.57608 9.25004 4.13096 9.25004 3.66683C9.25004 3.2027 9.06567 2.75758 8.73748 2.42939C8.40929 2.1012 7.96417 1.91683 7.50004 1.91683Z" fill="white"/>
</svg>
