<svg width="130" height="130" viewBox="0 0 130 130" fill="none" xmlns="http://www.w3.org/2000/svg">
<rect width="130" height="130" rx="12" fill="#F7F7F7"/>
<path d="M64.9888 38C57.3088 38 51.0308 44.278 51.0308 51.958C51.0308 59.6381 57.3088 65.9161 64.9888 65.9161C72.6688 65.9161 78.9469 59.6381 78.9469 51.958C78.9469 44.278 72.6688 38 64.9888 38Z" fill="white"/>
<path d="M88.9432 77.0703C88.5774 76.156 88.0899 75.3027 87.5413 74.5103C84.7375 70.3655 80.41 67.6227 75.5338 66.9522C74.9243 66.8913 74.2539 67.0131 73.7662 67.3788C71.2062 69.2683 68.1586 70.2436 64.9891 70.2436C61.8195 70.2436 58.7719 69.2683 56.2119 67.3788C55.7243 67.0131 55.0538 66.8303 54.4443 66.9522C49.5681 67.6227 45.1796 70.3655 42.4368 74.5103C41.8882 75.3027 41.4006 76.217 41.0349 77.0703C40.8521 77.436 39.8392 79.4397 40.022 79.8055C40.5096 80.6588 40.5473 80.4642 41.0958 81.1955C41.9491 82.3537 43.7982 83.6424 44.8344 84.6176C45.6877 85.4709 47.2405 86.4222 48.1428 87.0237C52.9579 90.6199 58.9549 91.7597 64.9282 91.7597C70.9015 91.7597 77.0126 90.6198 81.8278 87.0237C82.803 86.2923 83.982 85.7717 84.8354 84.9184C85.8106 83.9432 87.2903 83.0688 88.1437 81.9108C88.7532 81.1184 89.4605 80.6588 89.9481 79.8055C90.2527 79.4397 89.126 77.4359 88.9432 77.0703Z" fill="white"/>
</svg>
