<svg width="34" height="36" viewBox="0 0 34 36" fill="none" xmlns="http://www.w3.org/2000/svg">
<path fill-rule="evenodd" clip-rule="evenodd" d="M13.6266 1.02506C14.3731 0.801113 15.1616 0.754786 15.9292 0.889775C16.6968 1.02476 17.4223 1.33733 18.0476 1.80252C18.6729 2.26772 19.1808 2.87265 19.5308 3.56905C19.8808 4.26544 20.0631 5.034 20.0632 5.81339V30.1867C20.0631 30.9661 19.8808 31.7347 19.5308 32.4311C19.1808 33.1275 18.6729 33.7324 18.0476 34.1976C17.4223 34.6628 16.6968 34.9753 15.9292 35.1103C15.1616 35.2453 14.3731 35.199 13.6266 34.9751L3.62657 31.9751C2.59673 31.6661 1.69392 31.0335 1.05204 30.1709C0.410156 29.3084 0.0634087 28.2619 0.0632324 27.1867V8.81339C0.0634087 7.73822 0.410156 6.69174 1.05204 5.8292C1.69392 4.96665 2.59673 4.33399 3.62657 4.02506L13.6266 1.02506V1.02506ZM21.7299 4.66672C21.7299 4.2247 21.9055 3.80077 22.2181 3.48821C22.5306 3.17565 22.9545 3.00006 23.3966 3.00006H28.3966C29.7226 3.00006 30.9944 3.52684 31.9321 4.46452C32.8698 5.4022 33.3966 6.67397 33.3966 8.00006V9.66672C33.3966 10.1087 33.221 10.5327 32.9084 10.8452C32.5959 11.1578 32.1719 11.3334 31.7299 11.3334C31.2879 11.3334 30.8639 11.1578 30.5514 10.8452C30.2388 10.5327 30.0632 10.1087 30.0632 9.66672V8.00006C30.0632 7.55803 29.8876 7.13411 29.5751 6.82154C29.2625 6.50898 28.8386 6.33339 28.3966 6.33339H23.3966C22.9545 6.33339 22.5306 6.15779 22.2181 5.84523C21.9055 5.53267 21.7299 5.10875 21.7299 4.66672ZM31.7299 24.6667C32.1719 24.6667 32.5959 24.8423 32.9084 25.1549C33.221 25.4674 33.3966 25.8914 33.3966 26.3334V28.0001C33.3966 29.3261 32.8698 30.5979 31.9321 31.5356C30.9944 32.4733 29.7226 33.0001 28.3966 33.0001H23.3966C22.9545 33.0001 22.5306 32.8245 22.2181 32.5119C21.9055 32.1993 21.7299 31.7754 21.7299 31.3334C21.7299 30.8914 21.9055 30.4674 22.2181 30.1549C22.5306 29.8423 22.9545 29.6667 23.3966 29.6667H28.3966C28.8386 29.6667 29.2625 29.4911 29.5751 29.1786C29.8876 28.866 30.0632 28.4421 30.0632 28.0001V26.3334C30.0632 25.8914 30.2388 25.4674 30.5514 25.1549C30.8639 24.8423 31.2879 24.6667 31.7299 24.6667ZM11.7299 16.3334C11.2879 16.3334 10.8639 16.509 10.5514 16.8215C10.2388 17.1341 10.0632 17.558 10.0632 18.0001C10.0632 18.4421 10.2388 18.866 10.5514 19.1786C10.8639 19.4911 11.2879 19.6667 11.7299 19.6667H11.7316C12.1736 19.6667 12.5975 19.4911 12.9101 19.1786C13.2226 18.866 13.3982 18.4421 13.3982 18.0001C13.3982 17.558 13.2226 17.1341 12.9101 16.8215C12.5975 16.509 12.1736 16.3334 11.7316 16.3334H11.7299Z" fill="#292D32"/>
<path d="M31.7298 18.0001L28.3965 21.3334M23.3965 18.0001H31.7298H23.3965ZM31.7298 18.0001L28.3965 14.6667L31.7298 18.0001Z" stroke="#3366FF" stroke-width="3.33333" stroke-linecap="round" stroke-linejoin="round"/>
</svg>
