<svg width="32" height="32" viewBox="0 0 32 32" fill="none" xmlns="http://www.w3.org/2000/svg">
<path d="M28.0801 15.76L27.8667 15.4667C27.4934 15.0134 27.0534 14.6534 26.5467 14.3867C25.8667 14 25.0934 13.8 24.2934 13.8H7.69339C6.89339 13.8 6.13339 14 5.44006 14.3867C4.92006 14.6667 4.45339 15.0534 4.06673 15.5334C3.30673 16.5067 2.94673 17.7067 3.06673 18.9067L3.56006 25.1334C3.73339 27.0134 3.96006 29.3334 8.18673 29.3334H23.8134C28.0401 29.3334 28.2534 27.0134 28.4401 25.12L28.9334 18.92C29.0534 17.8 28.7601 16.68 28.0801 15.76ZM19.1867 23.12H12.8001C12.2801 23.12 11.8667 22.6934 11.8667 22.1867C11.8667 21.68 12.2801 21.2534 12.8001 21.2534H19.1867C19.7067 21.2534 20.1201 21.68 20.1201 22.1867C20.1201 22.7067 19.7067 23.12 19.1867 23.12Z" fill="#3366FF"/>
<path opacity="0.4" d="M4.50671 15.08C4.80005 14.8133 5.09338 14.5733 5.44005 14.3866C6.12005 14 6.89338 13.8 7.69338 13.8H24.3067C25.1067 13.8 25.8667 14 26.56 14.3866C26.9067 14.5733 27.2134 14.8133 27.4934 15.0933V14.3866V13.0933C27.4934 8.33329 26.04 6.87996 21.28 6.87996H18.1067C17.52 6.87996 17.5067 6.86663 17.16 6.41329L15.56 4.26663C14.8 3.27996 14.2 2.66663 12.2934 2.66663H10.72C5.96005 2.66663 4.50671 4.11996 4.50671 8.87996V14.4V15.08Z" fill="#3366FF"/>
</svg>
