<svg width="17" height="16" viewBox="0 0 17 16" fill="none" xmlns="http://www.w3.org/2000/svg">
<path d="M9.34 8C9.34 7.80109 9.26098 7.61032 9.12033 7.46967C8.97968 7.32902 8.78891 7.25 8.59 7.25C8.39109 7.25 8.20032 7.32902 8.05967 7.46967C7.91902 7.61032 7.84 7.80109 7.84 8C7.84 8.19891 7.91902 8.38968 8.05967 8.53033C8.20032 8.67098 8.39109 8.75 8.59 8.75C8.78891 8.75 8.97968 8.67098 9.12033 8.53033C9.26098 8.38968 9.34 8.19891 9.34 8V8ZM6.215 8C6.215 7.80109 6.13598 7.61032 5.99533 7.46967C5.85468 7.32902 5.66391 7.25 5.465 7.25C5.26609 7.25 5.07532 7.32902 4.93467 7.46967C4.79402 7.61032 4.715 7.80109 4.715 8C4.715 8.19891 4.79402 8.38968 4.93467 8.53033C5.07532 8.67098 5.26609 8.75 5.465 8.75C5.66391 8.75 5.85468 8.67098 5.99533 8.53033C6.13598 8.38968 6.215 8.19891 6.215 8ZM12.465 8C12.465 7.80109 12.386 7.61032 12.2453 7.46967C12.1047 7.32902 11.9139 7.25 11.715 7.25C11.5161 7.25 11.3253 7.32902 11.1847 7.46967C11.044 7.61032 10.965 7.80109 10.965 8C10.965 8.19891 11.044 8.38968 11.1847 8.53033C11.3253 8.67098 11.5161 8.75 11.715 8.75C11.9139 8.75 12.1047 8.67098 12.2453 8.53033C12.386 8.38968 12.465 8.19891 12.465 8V8ZM2.13375 10.7125C2.48687 11.5516 2.99312 12.3047 3.63844 12.9516C4.27923 13.5947 5.03995 14.1059 5.8775 14.4562C6.73687 14.8172 7.64937 15 8.59 15H8.62125C9.56812 14.9953 10.4853 14.8078 11.3478 14.4391C12.1782 14.0851 12.9318 13.573 13.5666 12.9313C14.2056 12.2859 14.7072 11.5359 15.0541 10.7C15.4134 9.83437 15.5947 8.91406 15.59 7.96719C15.5847 6.88208 15.328 5.81296 14.84 4.84375V2.46875C14.84 2.27813 14.7643 2.09531 14.6295 1.96052C14.4947 1.82573 14.3119 1.75 14.1212 1.75H11.7447C10.7755 1.26202 9.70636 1.0053 8.62125 1H8.58844C7.6525 1 6.74469 1.18125 5.89 1.53594C5.05668 1.88211 4.2988 2.38736 3.65875 3.02344C3.01344 3.6625 2.50562 4.40938 2.15094 5.24219C1.78219 6.10469 1.59469 7.02188 1.59 7.96875C1.58531 8.92031 1.76969 9.84375 2.13375 10.7125V10.7125ZM4.49469 3.86875C5.59 2.78437 7.04312 2.1875 8.59 2.1875H8.61656C9.55875 2.19219 10.4947 2.42656 11.3212 2.86719L11.4525 2.9375H13.6525V5.1375L13.7228 5.26875C14.1634 6.09531 14.3978 7.03125 14.4025 7.97344C14.4087 9.53125 13.8134 10.9938 12.7212 12.0953C11.6306 13.1969 10.1728 13.8062 8.615 13.8125H8.58844C7.80719 13.8125 7.04937 13.6609 6.33531 13.3609C5.63844 13.0688 5.01344 12.6484 4.47594 12.1109C3.94 11.575 3.51812 10.9484 3.22594 10.2516C2.92281 9.52969 2.77125 8.76406 2.77437 7.97344C2.78375 6.41719 3.39469 4.95937 4.49469 3.86875V3.86875Z" fill="#192A3E"/>
</svg>
