<svg width="21" height="20" viewBox="0 0 21 20" fill="none" xmlns="http://www.w3.org/2000/svg">
<path d="M7.48845 17C7.48845 17.84 7.61732 18.66 7.85521 19.42C4.04884 18.09 1.17423 14.56 0.876861 10.43C0.579488 6.03999 3.08733 1.93999 7.14152 0.219994C8.19224 -0.220006 8.72751 0.0999944 8.95549 0.329994C9.17357 0.549994 9.48085 1.07999 9.04471 2.08999C8.59865 3.12999 8.38057 4.22999 8.38057 5.36999C8.39049 7.40999 9.18348 9.29999 10.4721 10.75C8.65812 12.21 7.48845 14.47 7.48845 17Z" fill="#292D32"/>
<path d="M19.5916 15.72C17.6289 18.41 14.5164 19.99 11.1958 19.99C11.0372 19.99 10.8786 19.98 10.72 19.97C9.72874 19.93 8.76723 19.74 7.85529 19.42C7.61739 18.66 7.48853 17.84 7.48853 17C7.48853 14.47 8.65819 12.21 10.4722 10.75C11.9293 12.4 14.0208 13.47 16.3304 13.57C16.9549 13.6 17.5794 13.55 18.194 13.44C19.3041 13.24 19.7502 13.66 19.9088 13.93C20.0773 14.2 20.2557 14.79 19.5916 15.72Z" fill="#3366FF"/>
</svg>
