<svg width="19" height="22" viewBox="0 0 19 22" fill="none" xmlns="http://www.w3.org/2000/svg">
<path d="M9.06169 1.91003C5.78068 1.91003 3.11423 4.60003 3.11423 7.91003V10.8C3.11423 11.41 2.85651 12.34 2.54922 12.86L1.40929 14.77C0.705511 15.95 1.19122 17.26 2.47984 17.7C6.7521 19.14 11.3614 19.14 15.6336 17.7C16.833 17.3 17.3584 15.87 16.7042 14.77L15.5642 12.86C15.2669 12.34 15.0092 11.41 15.0092 10.8V7.91003C15.0092 4.61003 12.3328 1.91003 9.06169 1.91003Z" stroke="#2E3A59" stroke-width="1.5" stroke-miterlimit="10" stroke-linecap="round"/>
<path d="M10.8956 2.19994C10.5883 2.10994 10.2711 2.03994 9.94403 1.99994C8.99244 1.87994 8.0805 1.94994 7.22803 2.19994C7.51549 1.45994 8.22918 0.939941 9.06183 0.939941C9.89447 0.939941 10.6082 1.45994 10.8956 2.19994Z" stroke="#2E3A59" stroke-width="1.5" stroke-miterlimit="10" stroke-linecap="round" stroke-linejoin="round"/>
<path d="M12.0354 18.0601C12.0354 19.7101 10.6972 21.0601 9.06162 21.0601C8.2488 21.0601 7.49546 20.7201 6.96018 20.1801C6.42491 19.6401 6.08789 18.8801 6.08789 18.0601" stroke="#2E3A59" stroke-width="1.5" stroke-miterlimit="10"/>
<ellipse cx="14.9894" cy="5" rx="3.96497" ry="4" fill="#3366FF"/>
</svg>
