<svg width="28" height="28" viewBox="0 0 28 28" fill="none" xmlns="http://www.w3.org/2000/svg">
<path d="M3.82668 2.59002C3.74658 2.50405 3.64998 2.4351 3.54264 2.38727C3.43531 2.33945 3.31945 2.31373 3.20196 2.31166C3.08447 2.30959 2.96777 2.3312 2.85882 2.37521C2.74987 2.41921 2.65089 2.48472 2.5678 2.5678C2.48472 2.65089 2.41921 2.74987 2.37521 2.85882C2.3312 2.96777 2.30959 3.08447 2.31166 3.20196C2.31373 3.31945 2.33945 3.43531 2.38727 3.54264C2.4351 3.64998 2.50405 3.74658 2.59002 3.82668L5.15435 6.39335C1.20402 10.9772 1.40235 17.9025 5.74935 22.2507C5.83055 22.332 5.92698 22.3966 6.03313 22.4407C6.13929 22.4848 6.25308 22.5075 6.36803 22.5076C6.48297 22.5077 6.59681 22.4852 6.70304 22.4413C6.80928 22.3974 6.90583 22.3331 6.98718 22.2519C7.06854 22.1706 7.1331 22.0742 7.17719 21.9681C7.22128 21.8619 7.24402 21.7481 7.24413 21.6332C7.24424 21.5182 7.22171 21.4044 7.17782 21.2982C7.13393 21.1919 7.06955 21.0954 6.98835 21.014C5.23522 19.2615 4.20202 16.9159 4.09233 14.4395C3.98263 11.9631 4.80438 9.53535 6.39568 7.63468L8.47002 9.70785C7.4247 11.0548 6.90684 12.7369 7.01359 14.4386C7.12035 16.1402 7.84439 17.7444 9.04985 18.9502C9.214 19.1143 9.43663 19.2065 9.66877 19.2065C9.90091 19.2065 10.1235 19.1143 10.2877 18.9502C10.4518 18.786 10.544 18.5634 10.544 18.3313C10.544 18.0991 10.4518 17.8765 10.2877 17.7123C9.41031 16.8349 8.872 15.6751 8.76821 14.4386C8.66442 13.2021 9.00185 11.9688 9.72068 10.9573L12.3095 13.5473C12.2408 13.8066 12.2325 14.0781 12.2852 14.3411C12.3379 14.604 12.4502 14.8514 12.6135 15.0641C12.7767 15.2769 12.9866 15.4493 13.227 15.5682C13.4674 15.6871 13.7318 15.7493 14 15.75C14.1564 15.75 14.308 15.729 14.4527 15.6917L24.1722 25.41C24.3371 25.5695 24.5581 25.6578 24.7875 25.6559C25.017 25.654 25.2365 25.5621 25.3988 25.3999C25.5611 25.2378 25.6532 25.0184 25.6553 24.7889C25.6574 24.5595 25.5693 24.3385 25.41 24.1733L3.82668 2.59002ZM22.6217 18.9082L23.8969 20.1845C26.7179 15.68 26.1684 9.66818 22.2519 5.75052C22.0879 5.58621 21.8653 5.49379 21.6332 5.49357C21.401 5.49335 21.1783 5.58536 21.014 5.74935C20.8497 5.91334 20.7573 6.13589 20.7571 6.36802C20.7569 6.60016 20.8489 6.82288 21.0129 6.98718C22.5494 8.5239 23.5389 10.5226 23.8294 12.6763C24.1198 14.8299 23.6951 17.0193 22.6205 18.9082H22.6217ZM19.0727 15.3592L20.447 16.7335C20.9912 15.4494 21.1396 14.0321 20.8731 12.6632C20.6067 11.2942 19.9375 10.036 18.9514 9.04985C18.8701 8.96857 18.7736 8.9041 18.6674 8.86011C18.5612 8.81613 18.4474 8.79349 18.3324 8.79349C18.2175 8.79349 18.1037 8.81613 17.9975 8.86011C17.8913 8.9041 17.7948 8.96857 17.7135 9.04985C17.6322 9.13113 17.5678 9.22762 17.5238 9.33381C17.4798 9.44001 17.4572 9.55382 17.4572 9.66877C17.4572 9.78371 17.4798 9.89753 17.5238 10.0037C17.5678 10.1099 17.6322 10.2064 17.7135 10.2877C18.3657 10.9393 18.8347 11.7512 19.0733 12.6418C19.3119 13.5323 19.3117 14.4699 19.0727 15.3603V15.3592Z" fill="#FC0000"/>
</svg>
