<svg width="28" height="28" viewBox="0 0 28 28" fill="none" xmlns="http://www.w3.org/2000/svg">
<path d="M6.98845 5.75042C7.15231 5.91448 7.24435 6.13687 7.24435 6.36875C7.24435 6.60063 7.15231 6.82302 6.98845 6.98708C6.06757 7.90794 5.33709 9.00115 4.83871 10.2043C4.34033 11.4075 4.08382 12.697 4.08382 13.9993C4.08382 15.3016 4.34033 16.5912 4.83871 17.7943C5.33709 18.9975 6.06757 20.0907 6.98845 21.0116C7.14776 21.1767 7.23585 21.3978 7.23375 21.6272C7.23165 21.8566 7.13952 22.076 6.97722 22.2382C6.81491 22.4003 6.5954 22.4923 6.36598 22.4941C6.13655 22.496 5.91557 22.4077 5.75062 22.2483C1.19478 17.6924 1.19478 10.3063 5.75062 5.75042C5.91468 5.58656 6.13707 5.49452 6.36895 5.49452C6.60082 5.49452 6.82322 5.58656 6.98728 5.75042H6.98845ZM22.2496 5.75042C26.8054 10.3063 26.8054 17.6924 22.2496 22.2494C22.0837 22.404 21.8644 22.4881 21.6377 22.4841C21.411 22.4801 21.1947 22.3883 21.0344 22.228C20.8741 22.0677 20.7822 21.8514 20.7782 21.6247C20.7742 21.398 20.8584 21.1786 21.0129 21.0128C21.934 20.0919 22.6646 18.9986 23.1631 17.7953C23.6616 16.592 23.9182 15.3024 23.9182 13.9999C23.9182 12.6975 23.6616 11.4078 23.1631 10.2045C22.6646 9.00125 21.934 7.90796 21.0129 6.98708C20.927 6.90698 20.858 6.81038 20.8102 6.70305C20.7624 6.59571 20.7367 6.47985 20.7346 6.36236C20.7325 6.24487 20.7541 6.12817 20.7981 6.01922C20.8421 5.91027 20.9076 5.81129 20.9907 5.72821C21.0738 5.64512 21.1728 5.57962 21.2818 5.53561C21.3907 5.4916 21.5074 5.46999 21.6249 5.47206C21.7424 5.47413 21.8582 5.49985 21.9656 5.54767C22.0729 5.5955 22.1695 5.66445 22.2496 5.75042V5.75042ZM10.2878 9.04975C10.4516 9.21381 10.5437 9.43621 10.5437 9.66808C10.5437 9.89996 10.4516 10.1224 10.2878 10.2864C9.80009 10.7739 9.41323 11.3528 9.14928 11.9899C8.88534 12.6269 8.74949 13.3098 8.74949 13.9993C8.74949 14.6889 8.88534 15.3717 9.14928 16.0088C9.41323 16.6459 9.80009 17.2247 10.2878 17.7123C10.4423 17.8781 10.5265 18.0975 10.5225 18.3242C10.5185 18.5509 10.4267 18.7672 10.2663 18.9275C10.106 19.0878 9.88974 19.1796 9.66306 19.1836C9.43637 19.1876 9.21699 19.1035 9.05112 18.9489C7.73846 17.6362 7.00103 15.8558 7.00103 13.9993C7.00103 12.1429 7.73846 10.3625 9.05112 9.04975C9.21518 8.88589 9.43757 8.79385 9.66945 8.79385C9.90132 8.79385 10.1237 8.88589 10.2878 9.04975ZM18.9503 9.04975C20.2629 10.3625 21.0004 12.1429 21.0004 13.9993C21.0004 15.8558 20.2629 17.6362 18.9503 18.9489C18.8696 19.0325 18.7731 19.0992 18.6664 19.1451C18.5596 19.191 18.4448 19.2152 18.3286 19.2163C18.2125 19.2174 18.0972 19.1953 17.9897 19.1513C17.8821 19.1074 17.7844 19.0425 17.7022 18.9603C17.62 18.8782 17.555 18.7806 17.5109 18.6731C17.4669 18.5655 17.4447 18.4503 17.4457 18.3342C17.4466 18.218 17.4707 18.1031 17.5165 17.9964C17.5623 17.8896 17.6289 17.793 17.7124 17.7123C18.2 17.2247 18.5867 16.646 18.8505 16.009C19.1144 15.3721 19.2502 14.6894 19.2502 13.9999C19.2502 13.3105 19.1144 12.6278 18.8505 11.9908C18.5867 11.3539 18.2 10.7751 17.7124 10.2876C17.5579 10.1217 17.4737 9.90233 17.4777 9.67564C17.4817 9.44896 17.5736 9.23267 17.7339 9.07236C17.8942 8.91204 18.1105 8.82021 18.3372 8.81621C18.5639 8.81221 18.7832 8.89636 18.9491 9.05092L18.9503 9.04975ZM14.0001 12.2499C14.4642 12.2499 14.9094 12.4343 15.2376 12.7625C15.5657 13.0907 15.7501 13.5358 15.7501 13.9999C15.7501 14.464 15.5657 14.9092 15.2376 15.2374C14.9094 15.5655 14.4642 15.7499 14.0001 15.7499C13.536 15.7499 13.0909 15.5655 12.7627 15.2374C12.4345 14.9092 12.2501 14.464 12.2501 13.9999C12.2501 13.5358 12.4345 13.0907 12.7627 12.7625C13.0909 12.4343 13.536 12.2499 14.0001 12.2499Z" fill="#5459EA"/>
</svg>
