<svg width="14" height="14" viewBox="0 0 14 14" fill="none" xmlns="http://www.w3.org/2000/svg">
<path d="M12.8158 10.6923C12.8158 10.9023 12.7691 11.1182 12.67 11.3282C12.5708 11.5382 12.4425 11.7365 12.2733 11.9232C11.9875 12.2382 11.6725 12.4657 11.3166 12.6115C10.9666 12.7573 10.5875 12.8332 10.1791 12.8332C9.58413 12.8332 8.94829 12.6932 8.27746 12.4073C7.60663 12.1215 6.93579 11.7365 6.27079 11.2523C5.59996 10.7623 4.96413 10.2198 4.35746 9.619C3.75663 9.01234 3.21413 8.3765 2.72996 7.7115C2.25163 7.0465 1.86663 6.3815 1.58663 5.72234C1.30663 5.05734 1.16663 4.4215 1.16663 3.81484C1.16663 3.41817 1.23663 3.039 1.37663 2.689C1.51663 2.33317 1.73829 2.0065 2.04746 1.71484C2.42079 1.34734 2.82913 1.1665 3.26079 1.1665C3.42413 1.1665 3.58746 1.2015 3.73329 1.2715C3.88496 1.3415 4.01913 1.4465 4.12413 1.59817L5.47746 3.50567C5.58246 3.6515 5.65829 3.78567 5.71079 3.914C5.76329 4.0365 5.79246 4.159 5.79246 4.26984C5.79246 4.40984 5.75163 4.54984 5.66996 4.684C5.59413 4.81817 5.48329 4.95817 5.34329 5.09817L4.89996 5.559C4.83579 5.62317 4.80663 5.699 4.80663 5.79234C4.80663 5.839 4.81246 5.87984 4.82413 5.9265C4.84163 5.97317 4.85913 6.00817 4.87079 6.04317C4.97579 6.23567 5.15663 6.4865 5.41329 6.78984C5.67579 7.09317 5.95579 7.40234 6.25913 7.7115C6.57413 8.02067 6.87746 8.3065 7.18663 8.569C7.48996 8.82567 7.74079 9.00067 7.93913 9.10567C7.96829 9.11734 8.00329 9.13484 8.04413 9.15234C8.09079 9.16984 8.13746 9.17567 8.18996 9.17567C8.28913 9.17567 8.36496 9.14067 8.42913 9.0765L8.87246 8.639C9.01829 8.49317 9.15829 8.38234 9.29246 8.31234C9.42663 8.23067 9.56079 8.18984 9.70663 8.18984C9.81746 8.18984 9.93413 8.21317 10.0625 8.26567C10.1908 8.31817 10.325 8.394 10.4708 8.49317L12.4016 9.864C12.5533 9.969 12.6583 10.0915 12.7225 10.2373C12.7808 10.3832 12.8158 10.529 12.8158 10.6923Z" stroke="#8388A2" stroke-miterlimit="10"/>
</svg>
